<?xml version="1.0" encoding="UTF-8"?><svg id="Layer_2" xmlns="http://www.w3.org/2000/svg" viewBox="0 0 936.47 180.61"><defs><style>.cls-1{fill:#303436;}</style></defs><g id="Logo_3_Colour"><g><g><path class="cls-1" d="M20.49,91.04l-4.76,3.68c-2.07,1.61-11.2,9.44-13.89,12.05l-1.84-2.07,30.23-23.4h8.98v85.6H20.49V91.04Z"/><path class="cls-1" d="M92.76,152.42H51.94v-1.77c14.96-22.33,31.46-46.88,47.19-69.36h12.43v69.21c6.83-.08,14.27-.23,15.81-.31v2.61c-1.53-.08-8.98-.23-15.81-.31v28.08h-18.8v-28.16Zm0-1.77v-57.01c-12.74,18.26-26.4,38.59-38.67,57.01h38.67Z"/><path class="cls-1" d="M223.49,73.88c-1.77-.07-24.31-.75-27.23-.75h-10.89v44.12h7.15c2.86,0,24.38-.27,27.17-.41v2.31c-2.79-.14-24.31-.34-27.17-.34h-7.15v48.07h-18.04V71.57h56.17v2.32Z"/><path class="cls-1" d="M227.29,131.17c0-26.28,20.29-49.7,44.73-49.7s44.66,23.42,44.66,49.7-20.29,49.43-44.66,49.43-44.73-23.15-44.73-49.43Zm49.21,47.68c14.87-1.68,22.86-18.69,22.12-42.58-.73-23.62-10.2-50.16-31.13-53.06-15.13,1.83-22.92,18.96-22.19,42.58,.74,23.95,10.41,50.22,31.2,53.05Z"/><path class="cls-1" d="M393.61,71.57h70.13v2.32c-1.63-.07-21.52-.68-26.01-.75v93.76h-18.04V73.13c-4.29,.07-24.38,.68-26.08,.75v-2.32Z"/><path class="cls-1" d="M491.17,124.81l-27.17-53.24h20.22l24.38,48.61,13.69-23.9c4.22-7.29,11.44-21.18,13.14-24.72h2.86l-29.01,50.66v44.66h-18.11v-42.08Z"/><path class="cls-1" d="M561.97,71.57h70.13v2.32c-1.63-.07-21.52-.68-26.01-.75v93.76h-18.04V73.13c-4.29,.07-24.38,.68-26.08,.75v-2.32Z"/><path class="cls-1" d="M640.53,71.57h18.04v45.69h39.01v-45.69h18.04v95.32h-18.04v-48.07h-39.01v48.07h-18.04V71.57Z"/><path class="cls-1" d="M778.39,121.13c10.28-3.74,19.68-11.37,19.68-23.97,0-14.3-12.12-25.6-31.86-25.6h-33.98v95.32h18.04v-42.33c0-1.17,0-2.35,0-3.52,0-.77,0-1.53,0-2.3h6.64c.45,0,.92,.02,1.36,0,.19,0,.73,1.22,.83,1.38,.33,.59,.67,1.17,1,1.76,1.49,2.62,2.92,5.25,4.29,7.94l3.56,6.95c1.37,2.68,2.74,5.36,4.12,8.04,1.38,2.69,2.76,5.39,4.14,8.08,1.21,2.36,2.41,4.72,3.62,7.08,.86,1.67,1.71,3.34,2.57,5.02l.98,1.91h20.22l-25.19-45.75Zm-6.94-5.66c-3.81,1.88-8.26,1.71-12.7,1.71h-8.49v-44.04h6.13c6.15,0,12.62,2.27,16.97,6.69,2.75,2.8,4.52,6.37,5.42,10.16,1.64,6.91,1.63,14.2-2.04,20.47-.46,.78-.96,1.54-1.58,2.2-1.14,1.25-2.39,2.15-3.72,2.8Z"/><path class="cls-1" d="M812.02,71.57h56.17v2.32c-1.77-.07-24.31-.75-27.23-.75h-10.89v44.12h7.15c2.86,0,24.38-.27,27.17-.41v2.31c-2.79-.14-24.31-.34-27.17-.34h-7.15v46.5h11.44c2.93,0,25.46-.68,27.23-.75v2.31h-56.72V71.57Z"/><path class="cls-1" d="M879.76,71.57h56.17v2.32c-1.77-.07-24.31-.75-27.23-.75h-10.89v44.12h7.15c2.86,0,24.37-.27,27.17-.41v2.31c-2.79-.14-24.31-.34-27.17-.34h-7.15v46.5h11.44c2.93,0,25.46-.68,27.23-.75v2.31h-56.72V71.57Z"/><path class="cls-1" d="M531.65,117.25h36.84v1.57h-36.84v-1.57Z"/><path class="cls-1" d="M374.28,121.08c10.28-3.74,19.68-11.37,19.68-23.97,0-14.3-12.12-25.6-31.86-25.6h-33.98v95.32h18.04v-42.33c0-1.17,0-2.35,0-3.52,0-.77,0-1.53,0-2.3h6.64c.45,0,.92,.02,1.36,0,.19,0,.73,1.22,.83,1.38,.33,.59,.67,1.17,1,1.76,1.49,2.62,2.92,5.25,4.29,7.94l3.56,6.95c1.37,2.68,2.74,5.36,4.12,8.04,1.38,2.69,2.76,5.39,4.14,8.08,1.21,2.36,2.41,4.72,3.62,7.08,.86,1.67,1.71,3.34,2.57,5.02l.98,1.91h20.22l-25.19-45.75Zm-6.94-5.66c-3.81,1.88-8.26,1.71-12.7,1.71h-8.49v-44.04h6.13c6.15,0,12.62,2.27,16.97,6.69,2.75,2.8,4.52,6.37,5.42,10.16,1.64,6.91,1.63,14.2-2.04,20.47-.46,.78-.96,1.54-1.58,2.2-1.14,1.25-2.39,2.15-3.72,2.8Z"/></g><g><path class="cls-1" d="M800.42,20.27c-2.48-2.06-4.93-2.87-7.19-2.87-3.72,0-5.49,2.16-5.49,4.71,0,2.76,1.91,4.85,7.09,8.72,5.63,4.18,7.58,6.13,7.58,10.35,0,6.77-5.81,9.5-10.38,9.5-3.37,0-6.45-1.56-8.65-3.19l.64-.96c1.7,1.52,4.46,3.29,7.8,3.29,3.68,0,6.59-2.16,6.59-5.85,0-2.98-1.45-4.57-7.16-9-5.92-4.61-7.16-6.84-7.16-9.88,0-4.75,3.76-8.5,8.89-8.5,3.15,0,6.09,1.42,8.08,2.73l-.64,.96Z"/><path class="cls-1" d="M822.95,18.46c-1.81-.11-5.99-.25-8.79-.32v27.32c0,2.41,.71,4.15,3.37,4.15,1.95,0,3.65-.92,5.14-2.48l.67,.99c-1.74,1.28-4.15,2.55-7.33,2.55-5.78,0-7.19-4.15-7.19-8.04V18.1h-4.07v-.81h4.07v-5.46l5.35-4.54v9.99h8.79v1.17Z"/><path class="cls-1" d="M846.8,46.52c-2.09,1.91-6.16,4.15-10.66,4.15-7.16,0-9.18-5.53-9.18-10.45V17.29l5.39-.36v24.38c0,3.61,.92,7.72,6.27,7.72,3.19,0,5.92-1.52,8.08-3.51V17.29l5.39-.36V49.96h-4.36l-.92-3.44Z"/><path class="cls-1" d="M880.95,46.7c-2.02,1.77-6.2,4.04-10.17,4.04-6.31,0-13.07-5.85-13.07-16.48s7.19-17.68,14.14-17.68c3.72,0,6.84,2.06,8.89,3.69V.35l5.31-.35V49.96h-4.22l-.89-3.26Zm-.21-25.37c-2.66-1.74-4.89-2.62-7.65-3.05-6.17,.71-9.78,7.02-9.78,15.31,0,8.86,4.07,14.7,10.7,14.7,2.94,0,5.21-1.2,6.73-2.41V21.33Z"/><path class="cls-1" d="M896.69,3.61c1.66,0,3.19,1.17,3.19,3.19s-1.52,3.19-3.19,3.19-3.19-1.17-3.19-3.19,1.49-3.19,3.19-3.19Zm-2.69,13.68l5.39-.36V49.96h-5.39V17.29Z"/><path class="cls-1" d="M905.01,33.62c0-9.71,7.69-17.04,15.41-17.04s15.41,7.33,15.41,17.04-7.69,17.04-15.41,17.04-15.41-7.3-15.41-17.04Zm16.16,16.23c4.71-.71,9.11-5.39,9.11-15.16s-4.22-16.09-10.91-17.29c-5.03,.74-8.79,5.53-8.79,15.27,0,9.21,3.37,16.09,10.59,17.18Z"/></g></g></g></svg>