<?xml version="1.0" encoding="UTF-8"?><svg id="Layer_2" xmlns="http://www.w3.org/2000/svg" viewBox="0 0 1080.31 638.33"><defs><style>.cls-1{fill:#303436;}</style></defs><g id="Logo_3_Colour"><g><path class="cls-1" d="M44.74,399.76l-10.39,8.04c-4.52,3.52-24.46,20.61-30.33,26.31l-4.02-4.52,66.02-51.11h19.6v186.92H44.74v-165.64Z"/><path class="cls-1" d="M262.5,430.17h153.14v5.06c-3.57-.15-46.98-1.49-56.8-1.64v204.73h-39.4v-204.73c-9.37,.15-53.23,1.49-56.95,1.64v-5.06Z"/><path class="cls-1" d="M434.06,430.17h39.4v99.77h85.19v-99.77h39.4v208.15h-39.4v-104.97h-85.19v104.97h-39.4v-208.15Z"/><path class="cls-1" d="M735.12,538.41c22.45-8.18,42.97-24.83,42.97-52.34,0-31.22-26.47-55.9-69.58-55.9h-74.19v208.15h39.4v-92.44c0-2.56,0-5.13,0-7.69,0-1.67,0-3.34,0-5.01h14.49c.98,0,2,.04,2.96,0,.42-.02,1.6,2.66,1.81,3.02,.73,1.28,1.46,2.56,2.19,3.84,3.26,5.71,6.38,11.47,9.37,17.33,2.59,5.06,5.18,10.12,7.77,15.18,3,5.85,5.99,11.71,8.99,17.56,3.01,5.88,6.02,11.77,9.03,17.65,2.64,5.15,5.27,10.3,7.91,15.45,1.87,3.65,3.74,7.3,5.61,10.95l2.13,4.16h44.16l-55.01-99.91Zm-15.15-12.37c-8.33,4.11-18.04,3.72-27.73,3.72h-18.53v-96.17h13.38c13.42,0,27.57,4.96,37.05,14.62,6,6.11,9.87,13.91,11.84,22.2,3.59,15.09,3.57,31-4.46,44.71-1,1.7-2.1,3.36-3.44,4.81-2.5,2.72-5.22,4.69-8.11,6.12Z"/><path class="cls-1" d="M808.54,430.17h122.66v5.06c-3.87-.15-53.08-1.64-59.47-1.64h-23.79v96.35h15.61c6.25,0,53.23-.59,59.32-.89v5.06c-6.1-.3-53.08-.74-59.32-.74h-15.61v101.55h24.98c6.39,0,55.61-1.49,59.47-1.63v5.06h-123.85v-208.15Z"/><path class="cls-1" d="M956.46,430.17h122.66v5.06c-3.87-.15-53.08-1.64-59.47-1.64h-23.79v96.35h15.61c6.24,0,53.23-.59,59.32-.89v5.06c-6.1-.3-53.08-.74-59.32-.74h-15.61v101.55h24.98c6.39,0,55.61-1.49,59.47-1.63v5.06h-123.85v-208.15Z"/><path class="cls-1" d="M267.47,169.38c6.39,0,55.61,1.49,59.47,1.64v-5.06h-122.66v230.02c-30.6,44.14-62.03,90.94-90.86,133.97v3.85h89.14v61.49h41.05v-61.33c14.91,.17,31.17,.5,34.52,.67v-5.7c-3.35,.17-19.6,.5-34.52,.67v-57.42c0-34.46,.07-68.92,.07-103.39v-99.66h15.61c6.25,0,53.23,.45,59.32,.74v-5.06c-6.1,.3-53.08,.89-59.32,.89h-15.61v-96.35h23.79Zm-64.91,360.57H118.11c26.81-40.22,56.63-84.62,84.45-124.5v124.5Z"/><path class="cls-1" d="M335.25,296.13c0-57.39,44.31-108.54,97.68-108.54s97.54,51.14,97.54,108.54-44.31,107.94-97.54,107.94-97.68-50.55-97.68-107.94Zm107.45,104.12c32.46-3.68,49.91-40.81,48.3-92.97-1.59-51.57-22.27-109.54-67.99-115.86-33.05,4-50.04,41.41-48.45,92.98,1.61,52.31,22.72,109.67,68.13,115.86Z"/><path class="cls-1" d="M698.44,165.96h153.14v5.06c-3.57-.15-46.98-1.49-56.8-1.64v204.73h-39.4V169.38c-9.37,.15-53.23,1.49-56.95,1.64v-5.06Z"/><path class="cls-1" d="M911.48,282.23l-59.32-116.27h44.16l53.23,106.16,29.88-52.19c9.22-15.91,24.98-46.24,28.7-53.97h6.25l-63.34,110.62v97.53h-39.55v-91.88Z"/><path class="cls-1" d="M999.87,265.73h80.44v3.42h-80.44v-3.42Z"/><path class="cls-1" d="M656.23,274.09c22.45-8.18,42.97-24.83,42.97-52.34,0-31.22-26.47-55.9-69.58-55.9h-74.19v208.15h39.4v-92.44c0-2.56,0-5.13,0-7.69,0-1.67,0-3.34,0-5.01h14.49c.98,0,2,.04,2.96,0,.42-.02,1.6,2.66,1.81,3.02,.73,1.28,1.46,2.56,2.19,3.84,3.26,5.71,6.38,11.47,9.37,17.33,2.59,5.06,5.18,10.12,7.77,15.18,3,5.85,5.99,11.71,8.99,17.56,3.01,5.88,6.02,11.77,9.03,17.65,2.64,5.15,5.27,10.3,7.91,15.45,1.87,3.65,3.74,7.3,5.61,10.95l2.13,4.16h44.16l-55.01-99.91Zm-15.15-12.37c-8.33,4.11-18.04,3.72-27.73,3.72h-18.53v-96.17h13.38c13.42,0,27.57,4.96,37.05,14.62,6,6.11,9.87,13.91,11.84,22.2,3.59,15.09,3.57,31-4.46,44.71-1,1.7-2.1,3.36-3.44,4.81-2.5,2.72-5.22,4.69-8.11,6.12Z"/><g><path class="cls-1" d="M718.66,44.26c-5.42-4.49-10.75-6.27-15.71-6.27-8.12,0-11.99,4.72-11.99,10.29,0,6.03,4.18,10.6,15.47,19.03,12.3,9.13,16.56,13.38,16.56,22.59,0,14.78-12.69,20.74-22.67,20.74-7.35,0-14.08-3.4-18.88-6.96l1.39-2.09c3.71,3.33,9.75,7.19,17.02,7.19,8.05,0,14.39-4.72,14.39-12.77,0-6.5-3.17-9.98-15.63-19.65-12.92-10.06-15.63-14.93-15.63-21.59,0-10.37,8.2-18.57,19.42-18.57,6.89,0,13.31,3.09,17.64,5.96l-1.39,2.09Z"/><path class="cls-1" d="M767.87,40.31c-3.95-.23-13.08-.54-19.19-.7v59.65c0,5.26,1.55,9.05,7.35,9.05,4.26,0,7.97-2.01,11.22-5.42l1.47,2.17c-3.79,2.79-9.05,5.57-16.02,5.57-12.61,0-15.71-9.05-15.71-17.56V39.54h-8.9v-1.78h8.9v-11.92l11.68-9.9v21.82h19.19v2.55Z"/><path class="cls-1" d="M819.94,101.59c-4.56,4.18-13.46,9.05-23.29,9.05-15.63,0-20.04-12.07-20.04-22.82V37.76l11.76-.77v53.23c0,7.89,2.01,16.87,13.69,16.87,6.96,0,12.92-3.33,17.64-7.66V37.76l11.76-.77V109.09h-9.52l-2.01-7.5Z"/><path class="cls-1" d="M894.53,101.98c-4.41,3.87-13.54,8.82-22.21,8.82-13.77,0-28.55-12.77-28.55-35.98s15.71-38.61,30.87-38.61c8.12,0,14.93,4.49,19.42,8.05V.77l11.6-.77V109.09h-9.21l-1.93-7.12Zm-.46-55.4c-5.8-3.79-10.68-5.72-16.71-6.65-13.46,1.55-21.35,15.32-21.35,33.42,0,19.34,8.9,32.11,23.37,32.11,6.42,0,11.37-2.63,14.7-5.26V46.58Z"/><path class="cls-1" d="M928.88,7.89c3.64,0,6.96,2.55,6.96,6.96s-3.33,6.96-6.96,6.96-6.96-2.55-6.96-6.96,3.25-6.96,6.96-6.96Zm-5.88,29.87l11.76-.77V109.09h-11.76V37.76Z"/><path class="cls-1" d="M947.07,73.42c0-21.2,16.79-37.21,33.66-37.21s33.66,16.02,33.66,37.21-16.79,37.22-33.66,37.22-33.66-15.94-33.66-37.22Zm35.28,35.44c10.29-1.55,19.88-11.76,19.88-33.12s-9.21-35.13-23.83-37.76c-10.99,1.62-19.19,12.07-19.19,33.35,0,20.12,7.35,35.13,23.13,37.53Z"/></g></g></g></svg>