<?xml version="1.0" encoding="UTF-8"?><svg id="Layer_2" xmlns="http://www.w3.org/2000/svg" viewBox="0 0 853.47 853.47"><defs><style>.cls-1{fill:#303436;}.cls-2{fill:none;stroke:#303436;stroke-miterlimit:10;stroke-width:5px;}</style></defs><g id="Logo_3_Colour"><g><g><path class="cls-1" d="M488.26,247.28h-45.03c-33.85,48.38-68.67,99.4-102.74,149.82V247.28h-32.71l-110.16,85.28,6.71,7.55c9.79-9.51,43.06-38.02,50.61-43.9l17.34-13.42v219.37h.02v2.79h147.87v99.89s68.1,0,68.1,0v-99.61c24.74,.28,51.7,.83,57.26,1.11v-9.45c-5.56,.28-32.52,.83-57.26,1.11V255.38c25.05-.78,68.16-2.05,79.87-2.23v351.68h67.68V253.15c16.86,.26,91.43,2.56,97.56,2.81v-8.69h-245.11Zm-68.1,251.27h-79.67v-90.15c26.62-39.45,53.67-79.1,79.67-116.37v206.52Z"/><g><path class="cls-1" d="M150.08,552.59c-4.36-3.61-8.66-5.05-12.65-5.05-6.55,0-9.66,3.8-9.66,8.29,0,4.86,3.37,8.54,12.47,15.34,9.91,7.35,13.34,10.78,13.34,18.2,0,11.91-10.22,16.7-18.27,16.7-5.92,0-11.34-2.74-15.21-5.61l1.12-1.68c2.99,2.68,7.85,5.8,13.71,5.8,6.48,0,11.59-3.8,11.59-10.29,0-5.24-2.56-8.04-12.59-15.83-10.41-8.1-12.59-12.03-12.59-17.39,0-8.35,6.61-14.96,15.65-14.96,5.55,0,10.72,2.49,14.21,4.8l-1.12,1.68Z"/><path class="cls-1" d="M189.73,549.41c-3.18-.19-10.54-.44-15.46-.56v48.06c0,4.24,1.25,7.3,5.92,7.3,3.43,0,6.42-1.62,9.04-4.36l1.19,1.75c-3.06,2.24-7.29,4.49-12.9,4.49-10.16,0-12.65-7.29-12.65-14.15v-43.14h-7.17v-1.43h7.17v-9.6l9.41-7.98v17.58h15.46v2.06Z"/><path class="cls-1" d="M231.68,598.78c-3.68,3.37-10.85,7.29-18.76,7.29-12.59,0-16.14-9.72-16.14-18.39v-40.33l9.47-.62v42.89c0,6.36,1.62,13.59,11.03,13.59,5.61,0,10.41-2.68,14.21-6.17v-49.68l9.48-.62v58.1h-7.67l-1.62-6.05Z"/><path class="cls-1" d="M291.78,599.09c-3.55,3.12-10.91,7.11-17.89,7.11-11.1,0-23-10.29-23-28.99s12.65-31.1,24.87-31.1c6.55,0,12.03,3.61,15.65,6.48v-35.03l9.35-.63v87.89h-7.42l-1.56-5.73Zm-.37-44.63c-4.68-3.05-8.6-4.61-13.47-5.36-10.85,1.25-17.2,12.34-17.2,26.93,0,15.58,7.17,25.87,18.83,25.87,5.17,0,9.16-2.12,11.84-4.24v-43.2Z"/><path class="cls-1" d="M319.45,523.29c2.93,0,5.61,2.06,5.61,5.61s-2.68,5.61-5.61,5.61-5.61-2.06-5.61-5.61,2.62-5.61,5.61-5.61Zm-4.74,24.06l9.48-.62v58.1h-9.48v-57.47Z"/><path class="cls-1" d="M334.1,576.09c0-17.08,13.53-29.98,27.12-29.98s27.12,12.9,27.12,29.98-13.53,29.98-27.12,29.98-27.12-12.84-27.12-29.98Zm28.43,28.55c8.29-1.25,16.02-9.48,16.02-26.68s-7.42-28.3-19.2-30.42c-8.85,1.31-15.46,9.72-15.46,26.87,0,16.21,5.92,28.3,18.64,30.23Z"/></g></g><circle class="cls-2" cx="426.74" cy="426.74" r="424.24"/></g></g></svg>